<svg width="522" height="99" viewBox="0 0 522 99" fill="none" xmlns="http://www.w3.org/2000/svg">
<g filter="url(#filter0_d)">
<g filter="url(#filter1_d)">
<path d="M17.2812 83.0938C16.7188 82.7188 16.4375 82.3125 16.4375 81.875C16.375 81.4375 16.4688 81 16.7188 80.5625C16.9688 80.0625 17.3438 79.5625 17.8438 79.0625C18.3438 78.625 18.9375 77.5 19.625 75.6875C20.3125 73.9375 21.0312 71.8125 21.7812 69.3125C22.5938 66.75 23.375 63.9688 24.125 60.9688C24.9375 57.9688 25.6875 55.0312 26.375 52.1562C27.0625 49.2812 27.6562 46.625 28.1562 44.1875C28.6562 41.75 29.0312 39.8125 29.2812 38.375C29.5938 36.625 29.9375 34.7188 30.3125 32.6562C30.625 30.8438 30.9688 28.75 31.3438 26.375C31.7188 23.9375 32.0625 21.25 32.375 18.3125L39.875 14.9375C40.9375 14.4375 41.6875 14.5625 42.125 15.3125C42.5625 16 42.5625 17.4688 42.125 19.7188C41.9375 20.8438 41.5938 22.6875 41.0938 25.25C40.5938 27.75 40 30.5312 39.3125 33.5938C38.6875 36.5938 38 39.6875 37.25 42.875C36.5625 46 35.875 48.7812 35.1875 51.2188C34.5625 53.5312 33.8438 56.1875 33.0312 59.1875C31.5938 64.3125 29.5938 71.3125 27.0312 80.1875C27.9062 81.6875 29.5312 82.4375 31.9062 82.4375C34.5312 82.4375 37.5625 81.4375 41 79.4375C44.5 77.4375 47.875 74.4375 51.125 70.4375C54.375 66.4375 57.2188 61.4375 59.6562 55.4375C62.1562 49.375 63.7188 42.3125 64.3438 34.25C64.6562 29.875 64.4375 26.0312 63.6875 22.7188C62.9375 19.4062 61.7812 16.625 60.2188 14.375C58.7188 12.125 56.8438 10.4375 54.5938 9.3125C52.4062 8.1875 49.9688 7.625 47.2812 7.625C40.9688 7.625 34.4375 10.25 27.6875 15.5L27.2188 7.71875C28.8438 5.90625 30.6875 4.53125 32.75 3.59375C34.875 2.59375 36.8438 1.84375 38.6562 1.34375C40.7812 0.78125 42.9375 0.46875 45.125 0.40625C49.125 0.40625 52.9688 1.1875 56.6562 2.75C60.4062 4.25 63.625 6.5625 66.3125 9.6875C69.0625 12.8125 71.1562 16.75 72.5938 21.5C74.0312 26.1875 74.5312 31.6875 74.0938 38C73.8438 41.625 73.0938 45.4062 71.8438 49.3438C70.6562 53.2188 69.0625 57.0312 67.0625 60.7812C65.125 64.5312 62.8125 68.0938 60.125 71.4688C57.4375 74.8438 54.5 77.7812 51.3125 80.2812C48.125 82.8438 44.7188 84.8438 41.0938 86.2812C37.4688 87.7812 33.7188 88.5312 29.8438 88.5312C28.6562 88.4688 27.375 88.25 26 87.875C24.8125 87.5625 23.4688 87.0312 21.9688 86.2812C20.4688 85.5312 18.9062 84.4688 17.2812 83.0938ZM74.0938 70.5312C73.6562 71.2188 73.1875 71.6562 72.6875 71.8438C72.125 72.0938 71.6562 72.125 71.2812 71.9375C70.8438 71.8125 70.5625 71.5 70.4375 71C70.3125 70.5 70.4375 69.875 70.8125 69.125C71 68.75 71.4375 67.9062 72.125 66.5938C72.75 65.2812 73.5312 63.7188 74.4688 61.9062C75.3438 60.0312 76.3125 58.0312 77.375 55.9062C78.4375 53.7188 79.4375 51.6562 80.375 49.7188C81.375 47.7812 82.2812 46.0625 83.0938 44.5625C83.9062 43 84.5 41.875 84.875 41.1875C84.1875 40.5625 83.7188 40.125 83.4688 39.875C83.2188 39.5625 83.0312 38.9375 82.9062 38C82.7812 37.1875 82.9688 36.125 83.4688 34.8125C83.9688 33.5 84.625 32.25 85.4375 31.0625C86.25 29.8125 87.1562 28.75 88.1562 27.875C89.1562 27 90.125 26.5625 91.0625 26.5625C92.8125 26.5625 94.0312 27.125 94.7188 28.25C95.4688 29.375 95.9062 30.5312 96.0312 31.7188C96.1562 32.5312 96.0938 33.5625 95.8438 34.8125C95.5938 36.0625 95.125 37.1875 94.4375 38.1875C94.625 38.3125 94.875 38.4688 95.1875 38.6562C95.5 38.7812 96 38.8438 96.6875 38.8438C97.6875 38.8438 98.375 38.7812 98.75 38.6562C99.1875 38.5312 99.8438 38.4688 100.719 38.4688C101.781 38.4688 102.656 38.75 103.344 39.3125C104.031 39.8125 104.594 40.4688 105.031 41.2812C105.469 42.0312 105.781 42.875 105.969 43.8125C106.219 44.6875 106.375 45.5 106.438 46.25C106.625 47.8125 106.219 49.4375 105.219 51.125C104.219 52.8125 103 54.6562 101.562 56.6562C100.688 57.9062 99.8125 59.3125 98.9375 60.875C98.0625 62.4375 97.6875 63.8438 97.8125 65.0938C97.9375 65.9062 98.1562 66.5625 98.4688 67.0625C98.7812 67.5625 99.6562 67.8125 101.094 67.8125C102.156 67.8125 103.312 67.4375 104.562 66.6875C105.875 65.875 107.188 64.875 108.5 63.6875C109.875 62.4375 111.219 61.0938 112.531 59.6562C113.844 58.1562 115.062 56.7188 116.188 55.3438C117.312 53.9062 118.25 52.625 119 51.5C119.812 50.375 120.406 49.5625 120.781 49.0625C121.094 48.5625 121.5 48.2188 122 48.0312C122.5 47.8438 122.938 47.8438 123.312 48.0312C123.688 48.2188 123.906 48.5938 123.969 49.1562C124.094 49.7188 123.875 50.4688 123.312 51.4062C122.938 52.0312 122.281 53.0312 121.344 54.4062C120.469 55.7812 119.375 57.3125 118.062 59C116.812 60.6875 115.406 62.4375 113.844 64.25C112.281 66 110.625 67.625 108.875 69.125C107.188 70.5625 105.469 71.75 103.719 72.6875C102.031 73.625 100.406 74.0938 98.8438 74.0938C97.2188 74.0938 95.875 73.7812 94.8125 73.1562C93.75 72.5312 92.875 71.7812 92.1875 70.9062C91.5625 69.9688 91.0938 68.9688 90.7812 67.9062C90.5312 66.7812 90.4375 65.75 90.5 64.8125C90.5625 64.0625 90.75 63.2812 91.0625 62.4688C91.4375 61.5938 91.8438 60.7188 92.2812 59.8438C92.7812 58.9062 93.2812 58 93.7812 57.125C94.3438 56.1875 94.8438 55.2812 95.2812 54.4062C96.3438 52.5938 97.1875 51.0625 97.8125 49.8125C98.5 48.5 98.8438 47.4062 98.8438 46.5312C98.8438 45.9688 98.7188 45.4688 98.4688 45.0312C98.2188 44.5938 97.8125 44.375 97.25 44.375C96.875 44.375 96.5938 44.4062 96.4062 44.4688C96.2812 44.4688 96.125 44.4688 95.9375 44.4688C95.8125 44.4688 95.5938 44.5 95.2812 44.5625C95.0312 44.5625 94.625 44.5625 94.0625 44.5625C93.25 44.5625 92.5625 44.4375 92 44.1875C91.4375 43.9375 90.9062 43.75 90.4062 43.625C90.1562 44.0625 89.5938 45 88.7188 46.4375C87.8438 47.875 86.8125 49.5625 85.625 51.5C84.5 53.4375 83.2812 55.4688 81.9688 57.5938C80.7188 59.7188 79.5312 61.7188 78.4062 63.5938C77.2812 65.4062 76.3438 66.9688 75.5938 68.2812C74.7812 69.5312 74.2812 70.2812 74.0938 70.5312ZM164.75 52.3438C163.875 53.5938 162.75 55.1562 161.375 57.0312C160 58.8438 158.562 60.6875 157.062 62.5625C155.625 64.375 154.188 66.0625 152.75 67.625C151.375 69.125 150.219 70.1875 149.281 70.8125C148.656 71.1875 147.938 71.5 147.125 71.75C146.312 72 145.469 72.1562 144.594 72.2188C143.781 72.2812 143 72.2188 142.25 72.0312C141.5 71.9062 140.844 71.6562 140.281 71.2812C139.719 70.8438 139.25 70.2188 138.875 69.4062C138.562 68.7188 138.25 67.8125 137.938 66.6875C137.688 65.5625 137.594 64.1562 137.656 62.4688C136.156 64.9688 134.5 66.9062 132.688 68.2812C130.875 69.5938 129.156 70.5625 127.531 71.1875C125.656 71.875 123.781 72.2812 121.906 72.4062C121.031 72.4062 120.094 72.0938 119.094 71.4688C118.094 70.9062 117.25 70 116.562 68.75C115.875 67.4375 115.438 65.7812 115.25 63.7812C115.062 61.7188 115.312 59.2812 116 56.4688C116.875 52.6562 118.25 49.1875 120.125 46.0625C122.062 42.9375 124.156 40.2812 126.406 38.0938C128.656 35.8438 130.875 34.1562 133.062 33.0312C135.25 31.9062 137.062 31.4062 138.5 31.5312C140.188 31.8438 141.562 32.3438 142.625 33.0312C143.5 33.6562 144.062 34.5938 144.312 35.8438C144.625 37.0312 144.125 38.625 142.812 40.625C143.688 40.4375 144.406 40.3125 144.969 40.25C145.594 40.1875 146.062 40.1562 146.375 40.1562C146.75 40.1562 147 40.1875 147.125 40.25C147.188 40.375 147.219 40.6562 147.219 41.0938C147.219 41.4688 147.125 42.1875 146.938 43.25C146.75 44.3125 146.469 45.75 146.094 47.5625C145.719 49.375 145.219 51.7188 144.594 54.5938C144.469 55.1562 144.344 55.6875 144.219 56.1875C144.156 56.625 144.062 57.0938 143.938 57.5938C143.875 58.0312 143.781 58.5625 143.656 59.1875C143.531 59.8125 143.375 60.5938 143.188 61.5312C143.125 62.0938 143.094 62.7188 143.094 63.4062C143.156 64.0312 143.281 64.625 143.469 65.1875C143.656 65.75 143.938 66.2188 144.312 66.5938C144.75 66.9062 145.344 67.0625 146.094 67.0625C146.719 67.0625 147.531 66.6875 148.531 65.9375C149.531 65.125 150.594 64.125 151.719 62.9375C152.844 61.6875 154 60.3438 155.188 58.9062C156.438 57.4062 157.594 55.9688 158.656 54.5938C159.719 53.2188 160.656 52 161.469 50.9375C162.344 49.875 162.969 49.0938 163.344 48.5938C163.844 48.0312 164.344 47.7188 164.844 47.6562C165.344 47.5312 165.719 47.6562 165.969 48.0312C166.219 48.4062 166.25 48.9688 166.062 49.7188C165.938 50.4688 165.5 51.3438 164.75 52.3438ZM137.281 56.4688C137.594 55.2188 137.969 53.75 138.406 52.0625C138.844 50.375 139.219 48.75 139.531 47.1875C139.844 45.625 140.062 44.3438 140.188 43.3438C140.375 42.2812 140.344 41.7812 140.094 41.8438C139.781 41.9062 139.438 42 139.062 42.125C138.75 42.25 138.344 42.3438 137.844 42.4062C137.344 42.4688 136.844 42.5625 136.344 42.6875C136.844 41.6875 137.125 40.875 137.188 40.25C137.312 39.5625 137.344 39.0312 137.281 38.6562C137.219 38.2188 137.094 37.875 136.906 37.625C136.219 37.0625 135 37.5312 133.25 39.0312C131.562 40.4688 129.594 43.1562 127.344 47.0938C126.406 48.7188 125.656 50.4688 125.094 52.3438C124.531 54.1562 124.125 55.875 123.875 57.5C123.688 59.125 123.656 60.5625 123.781 61.8125C123.906 63 124.156 63.7812 124.531 64.1562C125.219 64.8438 126 65.1875 126.875 65.1875C127.75 65.125 128.625 64.875 129.5 64.4375C130.438 63.9375 131.344 63.3125 132.219 62.5625C133.156 61.8125 133.969 61.0312 134.656 60.2188C135.406 59.4062 136 58.6562 136.438 57.9688C136.938 57.2812 137.219 56.7812 137.281 56.4688ZM202.156 66.6875C202.156 65.375 202.281 63.875 202.531 62.1875C202.844 60.5 203.219 58.7812 203.656 57.0312C204.094 55.2188 204.531 53.4688 204.969 51.7812C205.406 50.0938 205.781 48.5938 206.094 47.2812C206.469 45.6562 206.438 44.4062 206 43.5312C205.562 42.6562 204.812 42.2188 203.75 42.2188C203.25 42.2188 202.25 42.6562 200.75 43.5312C199.312 44.4062 197.719 45.9375 195.969 48.125C194.281 50.25 192.594 53.1562 190.906 56.8438C189.281 60.4688 188 65.0938 187.062 70.7188C185.875 71.3438 184.75 71.75 183.688 71.9375C183.125 72.0625 182.625 72.1562 182.188 72.2188C180.938 72.2812 180.125 72.0625 179.75 71.5625C179.375 71.125 179.438 70 179.938 68.1875C180.188 67.3125 180.625 65.9062 181.25 63.9688C181.938 62.0312 182.594 59.9375 183.219 57.6875C183.844 55.375 184.375 53.0938 184.812 50.8438C185.312 48.5312 185.562 46.5312 185.562 44.8438C185.562 43.6562 185.344 42.8438 184.906 42.4062C184.531 41.9688 183.969 41.75 183.219 41.75C182.656 41.75 181.719 42.0625 180.406 42.6875C179.094 43.3125 177.625 44.5312 176 46.3438C174.375 48.1562 172.75 50.6875 171.125 53.9375C169.562 57.125 168.219 61.2812 167.094 66.4062V66.2188C166.969 66.7188 166.844 67.2188 166.719 67.7188C166.594 68.1562 166.5 68.625 166.438 69.125C166.375 69.625 166.281 70.0938 166.156 70.5312L161.469 72.5938C161.156 72.7188 160.75 72.8125 160.25 72.875C159.812 72.9375 159.375 72.8438 158.938 72.5938C158.562 72.4062 158.281 71.9688 158.094 71.2812C157.906 70.5938 157.969 69.5625 158.281 68.1875L164.188 43.7188C164.375 42.9062 164.531 42.125 164.656 41.375C164.781 40.6875 164.844 40.0312 164.844 39.4062C164.906 38.7188 164.875 38.1562 164.75 37.7188C165.812 37.2188 166.75 36.8438 167.562 36.5938C168.375 36.3438 169.031 36.1562 169.531 36.0312C170.156 35.8438 170.688 35.75 171.125 35.75C173.125 35.75 173.781 37.4688 173.094 40.9062C172.844 41.9062 172.469 43.375 171.969 45.3125C173.156 43.8125 174.406 42.4062 175.719 41.0938C177.094 39.7188 178.469 38.5 179.844 37.4375C181.219 36.375 182.594 35.5312 183.969 34.9062C185.406 34.2812 186.812 33.9688 188.188 33.9688C189.25 33.9688 190.125 34.2812 190.812 34.9062C191.562 35.5312 192.125 36.375 192.5 37.4375C192.938 38.4375 193.188 39.6562 193.25 41.0938C193.312 42.4688 193.25 43.9062 193.062 45.4062C194.062 44.0938 195.156 42.7812 196.344 41.4688C197.594 40.0938 198.875 38.875 200.188 37.8125C201.562 36.75 202.969 35.875 204.406 35.1875C205.844 34.5 207.281 34.1562 208.719 34.1562C210.406 34.1562 211.688 34.6562 212.562 35.6562C213.5 36.6562 214.125 37.9375 214.438 39.5C214.812 41.0625 214.906 42.75 214.719 44.5625C214.594 46.375 214.344 48.125 213.969 49.8125L210.781 62.4688C210.094 65.5938 210.75 67.1562 212.75 67.1562C214.312 67.1562 216.031 66.4062 217.906 64.9062C219.781 63.4062 221.594 61.625 223.344 59.5625C225.156 57.5 226.844 55.375 228.406 53.1875C229.969 51 231.281 49.25 232.344 47.9375C232.719 47.5 233.094 47.25 233.469 47.1875C233.906 47.125 234.25 47.2188 234.5 47.4688C234.812 47.6562 234.969 48 234.969 48.5C235.031 49 234.875 49.625 234.5 50.375C233.25 52.5625 231.719 55 229.906 57.6875C228.094 60.3125 226.094 62.7812 223.906 65.0938C221.781 67.4062 219.5 69.3438 217.062 70.9062C214.625 72.4688 212.094 73.25 209.469 73.25C208.594 73.25 207.719 73.1562 206.844 72.9688C206.031 72.7812 205.25 72.4375 204.5 71.9375C203.812 71.4375 203.25 70.7812 202.812 69.9688C202.375 69.0938 202.156 68 202.156 66.6875ZM275.469 52.3438C274.594 53.5938 273.469 55.1562 272.094 57.0312C270.719 58.8438 269.281 60.6875 267.781 62.5625C266.344 64.375 264.906 66.0625 263.469 67.625C262.094 69.125 260.938 70.1875 260 70.8125C259.375 71.1875 258.656 71.5 257.844 71.75C257.031 72 256.188 72.1562 255.312 72.2188C254.5 72.2812 253.719 72.2188 252.969 72.0312C252.219 71.9062 251.562 71.6562 251 71.2812C250.438 70.8438 249.969 70.2188 249.594 69.4062C249.281 68.7188 248.969 67.8125 248.656 66.6875C248.406 65.5625 248.312 64.1562 248.375 62.4688C246.875 64.9688 245.219 66.9062 243.406 68.2812C241.594 69.5938 239.875 70.5625 238.25 71.1875C236.375 71.875 234.5 72.2812 232.625 72.4062C231.75 72.4062 230.812 72.0938 229.812 71.4688C228.812 70.9062 227.969 70 227.281 68.75C226.594 67.4375 226.156 65.7812 225.969 63.7812C225.781 61.7188 226.031 59.2812 226.719 56.4688C227.594 52.6562 228.969 49.1875 230.844 46.0625C232.781 42.9375 234.875 40.2812 237.125 38.0938C239.375 35.8438 241.594 34.1562 243.781 33.0312C245.969 31.9062 247.781 31.4062 249.219 31.5312C250.906 31.8438 252.281 32.3438 253.344 33.0312C254.219 33.6562 254.781 34.5938 255.031 35.8438C255.344 37.0312 254.844 38.625 253.531 40.625C254.406 40.4375 255.125 40.3125 255.688 40.25C256.312 40.1875 256.781 40.1562 257.094 40.1562C257.469 40.1562 257.719 40.1875 257.844 40.25C257.906 40.375 257.938 40.6562 257.938 41.0938C257.938 41.4688 257.844 42.1875 257.656 43.25C257.469 44.3125 257.188 45.75 256.812 47.5625C256.438 49.375 255.938 51.7188 255.312 54.5938C255.188 55.1562 255.062 55.6875 254.938 56.1875C254.875 56.625 254.781 57.0938 254.656 57.5938C254.594 58.0312 254.5 58.5625 254.375 59.1875C254.25 59.8125 254.094 60.5938 253.906 61.5312C253.844 62.0938 253.812 62.7188 253.812 63.4062C253.875 64.0312 254 64.625 254.188 65.1875C254.375 65.75 254.656 66.2188 255.031 66.5938C255.469 66.9062 256.062 67.0625 256.812 67.0625C257.438 67.0625 258.25 66.6875 259.25 65.9375C260.25 65.125 261.312 64.125 262.438 62.9375C263.562 61.6875 264.719 60.3438 265.906 58.9062C267.156 57.4062 268.312 55.9688 269.375 54.5938C270.438 53.2188 271.375 52 272.188 50.9375C273.062 49.875 273.688 49.0938 274.062 48.5938C274.562 48.0312 275.062 47.7188 275.562 47.6562C276.062 47.5312 276.438 47.6562 276.688 48.0312C276.938 48.4062 276.969 48.9688 276.781 49.7188C276.656 50.4688 276.219 51.3438 275.469 52.3438ZM248 56.4688C248.312 55.2188 248.688 53.75 249.125 52.0625C249.562 50.375 249.938 48.75 250.25 47.1875C250.562 45.625 250.781 44.3438 250.906 43.3438C251.094 42.2812 251.062 41.7812 250.812 41.8438C250.5 41.9062 250.156 42 249.781 42.125C249.469 42.25 249.062 42.3438 248.562 42.4062C248.062 42.4688 247.562 42.5625 247.062 42.6875C247.562 41.6875 247.844 40.875 247.906 40.25C248.031 39.5625 248.062 39.0312 248 38.6562C247.938 38.2188 247.812 37.875 247.625 37.625C246.938 37.0625 245.719 37.5312 243.969 39.0312C242.281 40.4688 240.312 43.1562 238.062 47.0938C237.125 48.7188 236.375 50.4688 235.812 52.3438C235.25 54.1562 234.844 55.875 234.594 57.5C234.406 59.125 234.375 60.5625 234.5 61.8125C234.625 63 234.875 63.7812 235.25 64.1562C235.938 64.8438 236.719 65.1875 237.594 65.1875C238.469 65.125 239.344 64.875 240.219 64.4375C241.156 63.9375 242.062 63.3125 242.938 62.5625C243.875 61.8125 244.688 61.0312 245.375 60.2188C246.125 59.4062 246.719 58.6562 247.156 57.9688C247.656 57.2812 247.938 56.7812 248 56.4688ZM284.656 39.125C281.469 39.125 278.875 38.7812 276.875 38.0938C274.938 37.4062 273.625 36.5312 272.938 35.4688C272.625 35.0312 272.344 34.375 272.094 33.5C271.844 32.625 271.938 31.6562 272.375 30.5938C273.25 31.2812 274.188 31.8125 275.188 32.1875C276.25 32.5 277.219 32.7188 278.094 32.8438C279.156 33.0312 280.188 33.125 281.188 33.125C283.062 33.125 284.875 32.9688 286.625 32.6562C288.438 32.3438 290.219 31.9062 291.969 31.3438C292.719 27.5938 293.438 24.2188 294.125 21.2188C294.875 18.2188 295.719 15.7812 296.656 13.9062C297.656 11.8438 298.688 10 299.75 8.375C300.875 6.6875 302.094 5.28125 303.406 4.15625C304.781 2.96875 306.281 2.0625 307.906 1.4375C309.531 0.8125 311.406 0.5 313.531 0.5C315.094 0.5 316.312 0.8125 317.188 1.4375C318.125 2.0625 318.812 2.84375 319.25 3.78125C319.75 4.71875 320.031 5.75 320.094 6.875C320.219 7.9375 320.281 8.9375 320.281 9.875C320.281 11.9375 319.781 14.1875 318.781 16.625C317.781 19.0625 316.375 21.4687 314.562 23.8438C312.75 26.2188 310.562 28.4688 308 30.5938C305.5 32.7188 302.688 34.4688 299.562 35.8438C298.5 39.9688 297.438 44.0625 296.375 48.125C295.375 52.125 294.375 55.4375 293.375 58.0625C292.5 60.5 291.375 63.2188 290 66.2188C288.688 69.2188 287.062 72.0938 285.125 74.8438C286.312 75.5938 287.5 76.375 288.688 77.1875C289.938 78 291.188 78.7188 292.438 79.3438C293.688 80.0312 294.938 80.5938 296.188 81.0312C297.5 81.4688 298.875 81.6875 300.312 81.6875C301.812 81.625 303.281 81.4062 304.719 81.0312C305.969 80.7188 307.281 80.1875 308.656 79.4375C310.031 78.75 311.312 77.75 312.5 76.4375C312.938 77.1875 313.062 78.3125 312.875 79.8125C312.75 81.3125 312.281 82.8125 311.469 84.3125C310.656 85.8125 309.5 87.125 308 88.25C306.5 89.375 304.625 89.9375 302.375 89.9375C300 89.9375 297.781 89.5938 295.719 88.9062C293.656 88.2812 291.719 87.5 289.906 86.5625C288.094 85.625 286.375 84.5938 284.75 83.4688C283.188 82.4062 281.719 81.4062 280.344 80.4688C278.469 82.2812 276.406 83.75 274.156 84.875C271.906 86 269.406 86.5625 266.656 86.5625C264.469 86.5625 262.719 85.9375 261.406 84.6875C260.094 83.5 259.5 81.875 259.625 79.8125C259.688 79.0625 259.906 78.1562 260.281 77.0938C260.656 76.0938 261.375 75.125 262.438 74.1875C263.438 73.25 264.844 72.4375 266.656 71.75C268.469 71.125 270.812 70.8125 273.688 70.8125C274.75 70.8125 275.75 70.9062 276.688 71.0938C277.688 71.3438 278.656 71.625 279.594 71.9375C280.281 70.6875 280.969 69.25 281.656 67.625C282.344 66 283.094 64.1562 283.906 62.0938C285.344 58.1562 286.594 54.2188 287.656 50.2812C288.719 46.2812 289.625 42.4062 290.375 38.6562C289.5 38.8438 288.562 38.9688 287.562 39.0312C286.625 39.0938 285.656 39.125 284.656 39.125ZM269.094 81.5C269.906 81.1875 270.844 80.875 271.906 80.5625C272.969 80.25 274.188 79.375 275.562 77.9375C274.625 77.625 273.906 77.4688 273.406 77.4688C271.156 77.4688 269.531 77.7812 268.531 78.4062C267.469 79.0938 266.938 79.75 266.938 80.375C266.938 80.8125 267.125 81.125 267.5 81.3125C267.875 81.5625 268.406 81.625 269.094 81.5ZM304.531 16.25C304.219 17.1875 303.812 18.5625 303.312 20.375C302.812 22.1875 302.281 24.2812 301.719 26.6562C305.094 24.4688 307.781 21.9688 309.781 19.1562C311.844 16.3438 312.875 13.5312 312.875 10.7188C312.875 9.03125 312.375 8.1875 311.375 8.1875C310.5 8.1875 309.375 8.875 308 10.25C306.625 11.5625 305.469 13.5625 304.531 16.25ZM344.188 56.0938C343.562 58.4688 342.719 60.6875 341.656 62.75C340.594 64.8125 339.312 66.5938 337.812 68.0938C336.375 69.5938 334.719 70.75 332.844 71.5625C331.031 72.4375 329.031 72.875 326.844 72.875C324.281 72.875 322.25 72.3125 320.75 71.1875C319.312 70.125 318.219 68.7812 317.469 67.1562C316.781 65.5312 316.375 63.75 316.25 61.8125C316.062 59.875 315.969 58.0625 315.969 56.375C315.969 55.1875 316.125 53.875 316.438 52.4375C316.688 51 317.062 49.5312 317.562 48.0312C318.062 46.5312 318.688 45.0312 319.438 43.5312C320.25 42.0312 321.188 40.6562 322.25 39.4062C322.625 38.3438 323.188 37.4062 323.938 36.5938C324.75 35.7812 325.656 35.125 326.656 34.625C327.719 34.0625 328.844 33.6562 330.031 33.4062C331.219 33.0938 332.375 32.9375 333.5 32.9375C333.688 32.9375 333.844 32.9688 333.969 33.0312C334.156 33.0938 334.344 33.1562 334.531 33.2188C335.344 33.2812 336.344 33.5938 337.531 34.1562C338.781 34.7188 339.969 35.5625 341.094 36.6875C342.281 37.8125 343.281 39.25 344.094 41C344.906 42.6875 345.312 44.75 345.312 47.1875C345.312 47.6875 345.281 48.3125 345.219 49.0625C345.156 49.75 345.094 50.3438 345.031 50.8438C346.469 50.2812 347.969 49.5938 349.531 48.7812C351.094 47.9688 352.594 47.125 354.031 46.25C355.531 45.3125 356.906 44.375 358.156 43.4375C359.406 42.5 360.406 41.6562 361.156 40.9062C361.781 40.3438 362.312 40.0312 362.75 39.9688C363.188 39.9062 363.5 40.0312 363.688 40.3438C363.875 40.6562 363.906 41.0938 363.781 41.6562C363.656 42.2188 363.312 42.8438 362.75 43.5312C362.438 43.9062 361.625 44.6562 360.312 45.7812C359.062 46.9062 357.562 48.125 355.812 49.4375C354.062 50.75 352.156 52.0312 350.094 53.2812C348.031 54.5312 346.062 55.4688 344.188 56.0938ZM328.344 41.8438C328.156 42.4062 328.062 43 328.062 43.625C328.062 44.625 328.125 45.6875 328.25 46.8125C328.375 47.875 328.688 48.8438 329.188 49.7188C329.688 50.5938 330.469 51.3438 331.531 51.9688C332.656 52.5312 334.188 52.8125 336.125 52.8125C336.438 52.8125 336.75 52.8125 337.062 52.8125C337.375 52.75 337.688 52.6875 338 52.625C338.188 51.8125 338.344 51.0938 338.469 50.4688C338.656 49.7812 338.75 49.1875 338.75 48.6875C338.875 47.5 338.875 46.2812 338.75 45.0312C338.625 43.7812 338.375 42.6562 338 41.6562C337.688 40.5938 337.25 39.75 336.688 39.125C336.188 38.4375 335.562 38.0938 334.812 38.0938C333.625 38.0938 332.469 38.4375 331.344 39.125C330.281 39.75 329.281 40.6562 328.344 41.8438ZM322.344 58.3438C322.344 59.4688 322.406 60.5938 322.531 61.7188C322.656 62.7812 322.906 63.75 323.281 64.625C323.656 65.4375 324.156 66.125 324.781 66.6875C325.406 67.1875 326.219 67.4375 327.219 67.4375C328.344 67.4375 329.375 67.1875 330.312 66.6875C331.25 66.125 332.094 65.4375 332.844 64.625C333.594 63.75 334.25 62.7812 334.812 61.7188C335.438 60.5938 335.969 59.4375 336.406 58.25C335.969 58.3125 335.531 58.375 335.094 58.4375C334.719 58.4375 334.281 58.4375 333.781 58.4375C331.406 58.4375 329.344 57.75 327.594 56.375C325.906 54.9375 324.594 53.125 323.656 50.9375C323.281 52.25 322.969 53.5312 322.719 54.7812C322.469 56.0312 322.344 57.2188 322.344 58.3438ZM381.688 54.3125C380.062 56.6875 378.375 59 376.625 61.25C374.938 63.5 373.281 65.5312 371.656 67.3438C370.094 69.0938 368.625 70.5 367.25 71.5625C365.938 72.6875 364.875 73.25 364.062 73.25C362.125 73.25 360.531 72.3438 359.281 70.5312C358.094 68.6562 357.156 66.375 356.469 63.6875C355.844 60.9375 355.438 58.0312 355.25 54.9688C355.125 51.8438 355.156 49.0625 355.344 46.625C355.594 44.1875 355.875 42.25 356.188 40.8125C356.5 39.3125 356.875 38.1562 357.312 37.3438C357.812 36.5312 358.375 35.9375 359 35.5625C359.688 35.1875 360.531 34.875 361.531 34.625C361.969 34.5 362.469 34.4062 363.031 34.3438C363.594 34.2812 364.094 34.3125 364.531 34.4375C365.031 34.5 365.406 34.6875 365.656 35C365.906 35.3125 365.938 35.7812 365.75 36.4062C365.625 36.9688 365.406 37.8125 365.094 38.9375C364.844 40 364.562 41.2188 364.25 42.5938C363.938 43.9688 363.625 45.4062 363.312 46.9062C363.062 48.4062 362.875 49.8438 362.75 51.2188C362.562 53.5938 362.562 55.6875 362.75 57.5C362.938 59.25 363.219 60.75 363.594 62C363.969 63.1875 364.375 64.0938 364.812 64.7188C365.25 65.3438 365.594 65.6562 365.844 65.6562C366.156 65.6562 366.719 65.25 367.531 64.4375C368.406 63.5625 369.375 62.4375 370.438 61.0625C371.562 59.6875 372.719 58.0938 373.906 56.2812C375.156 54.4688 376.312 52.5938 377.375 50.6562C377 49.6562 376.844 48.4688 376.906 47.0938C377.094 44.9688 377.562 43.0625 378.312 41.375C379.062 39.625 379.906 38.1562 380.844 36.9688C381.844 35.7812 382.844 34.875 383.844 34.25C384.906 33.5625 385.844 33.2188 386.656 33.2188C388.281 33.2188 389.281 33.6562 389.656 34.5312C390.094 35.3438 390.25 36.1875 390.125 37.0625C390 38.375 389.406 40.1875 388.344 42.5C387.344 44.75 386.031 47.2188 384.406 49.9062C384.719 50.0312 385.062 50.1562 385.438 50.2812C385.812 50.4062 386.25 50.4688 386.75 50.4688C388.875 50.4688 390.781 50.2188 392.469 49.7188C394.219 49.2188 395.719 48.625 396.969 47.9375C398.281 47.25 399.375 46.5312 400.25 45.7812C401.188 44.9688 401.938 44.3125 402.5 43.8125C402.875 43.4375 403.25 43.25 403.625 43.25C404 43.25 404.312 43.3438 404.562 43.5312C404.812 43.7188 404.938 44 404.938 44.375C404.938 44.75 404.75 45.1562 404.375 45.5938C402.125 48.3438 399.375 50.5625 396.125 52.25C392.938 53.9375 389.188 54.7812 384.875 54.7812C384.5 54.7812 384.031 54.75 383.469 54.6875C382.906 54.625 382.312 54.5 381.688 54.3125ZM437.75 51.5C435.875 54.25 433.75 56.9375 431.375 59.5625C429 62.125 426.469 64.4375 423.781 66.5C421.156 68.5 418.438 70.125 415.625 71.375C412.875 72.625 410.188 73.25 407.562 73.25C406.188 73.25 404.688 72.9062 403.062 72.2188C401.5 71.5938 400.062 70.5938 398.75 69.2188C397.438 67.8438 396.375 66.0625 395.562 63.875C394.812 61.6875 394.594 59.0312 394.906 55.9062C395.156 53.3438 395.938 50.6562 397.25 47.8438C398.625 44.9688 400.281 42.3438 402.219 39.9688C404.219 37.5938 406.438 35.625 408.875 34.0625C411.375 32.5 413.875 31.7188 416.375 31.7188C418.75 31.7188 420.469 32.3125 421.531 33.5C422.594 34.6875 423.062 36.1562 422.938 37.9062C422.75 39.8438 422.188 41.625 421.25 43.25C420.375 44.875 419.312 46.3438 418.062 47.6562C416.812 48.9688 415.469 50.1562 414.031 51.2188C412.656 52.2812 411.344 53.25 410.094 54.125C408.719 55.0625 407.406 55.9688 406.156 56.8438C404.906 57.6562 403.812 58.4062 402.875 59.0938C402.938 60.6562 403.219 61.9688 403.719 63.0312C404.219 64.0938 404.844 64.9688 405.594 65.6562C406.344 66.2812 407.188 66.75 408.125 67.0625C409.125 67.3125 410.125 67.4375 411.125 67.4375C413.25 67.4375 415.469 66.7812 417.781 65.4688C420.094 64.0938 422.344 62.4688 424.531 60.5938C426.781 58.6562 428.844 56.6562 430.719 54.5938C432.656 52.5312 434.25 50.75 435.5 49.25C435.938 48.75 436.375 48.4688 436.812 48.4062C437.312 48.2812 437.688 48.3438 437.938 48.5938C438.25 48.7812 438.406 49.1562 438.406 49.7188C438.406 50.2188 438.188 50.8125 437.75 51.5ZM413.75 37.0625C413 37.0625 412.094 37.4375 411.031 38.1875C410.031 38.9375 409.031 40.0312 408.031 41.4688C407.031 42.8438 406.094 44.5625 405.219 46.625C404.344 48.625 403.688 50.9375 403.25 53.5625C404 53 404.812 52.4375 405.688 51.875C406.562 51.25 407.438 50.5938 408.312 49.9062C411 47.8438 412.875 46.0312 413.938 44.4688C415 42.9062 415.594 41.5625 415.719 40.4375C415.844 39.25 415.719 38.4062 415.344 37.9062C414.969 37.3438 414.438 37.0625 413.75 37.0625Z" fill="white"/>
</g>
</g>
<defs>
<filter id="filter0_d" x="12.4187" y="0.40625" width="429.987" height="97.5312" filterUnits="userSpaceOnUse" color-interpolation-filters="sRGB">
<feFlood flood-opacity="0" result="BackgroundImageFix"/>
<feColorMatrix in="SourceAlpha" type="matrix" values="0 0 0 0 0 0 0 0 0 0 0 0 0 0 0 0 0 0 127 0"/>
<feOffset dy="4"/>
<feGaussianBlur stdDeviation="2"/>
<feColorMatrix type="matrix" values="0 0 0 0 0 0 0 0 0 0 0 0 0 0 0 0 0 0 0.25 0"/>
<feBlend mode="normal" in2="BackgroundImageFix" result="effect1_dropShadow"/>
<feBlend mode="normal" in="SourceGraphic" in2="effect1_dropShadow" result="shape"/>
</filter>
<filter id="filter1_d" x="16.4187" y="0.40625" width="430.987" height="98.5312" filterUnits="userSpaceOnUse" color-interpolation-filters="sRGB">
<feFlood flood-opacity="0" result="BackgroundImageFix"/>
<feColorMatrix in="SourceAlpha" type="matrix" values="0 0 0 0 0 0 0 0 0 0 0 0 0 0 0 0 0 0 127 0"/>
<feOffset dx="5" dy="5"/>
<feGaussianBlur stdDeviation="2"/>
<feColorMatrix type="matrix" values="0 0 0 0 0.0196078 0 0 0 0 0.0784314 0 0 0 0 0.129412 0 0 0 0.9 0"/>
<feBlend mode="normal" in2="BackgroundImageFix" result="effect1_dropShadow"/>
<feBlend mode="normal" in="SourceGraphic" in2="effect1_dropShadow" result="shape"/>
</filter>
</defs>
</svg>
